<svg xmlns="http://www.w3.org/2000/svg" xmlns:xlink="http://www.w3.org/1999/xlink" width="2362" zoomAndPan="magnify" viewBox="0 0 1771.5 531.000006" height="708" preserveAspectRatio="xMidYMid meet" version="1.0"><defs><g/></defs><g fill="#ffffff" fill-opacity="1"><g transform="translate(240.394635, 422.239339)"><g><path d="M 14.9375 0 L 14.9375 -337.59375 L 117.90625 -337.59375 L 146.203125 -131.65625 L 174.484375 -337.59375 L 278.25 -337.59375 L 278.25 0 L 216.546875 0 L 216.546875 -243.265625 L 177.640625 0 L 117.109375 0 L 75.84375 -243.265625 L 75.84375 0 Z M 14.9375 0 "/></g></g></g><g fill="#ffffff" fill-opacity="1"><g transform="translate(533.55456, 422.239339)"><g><path d="M 95.5 3.140625 C 68.25 3.140625 47.550781 -5.175781 33.40625 -21.8125 C 19.257812 -38.445312 12.1875 -61.832031 12.1875 -91.96875 L 12.1875 -252.703125 C 12.1875 -281.785156 19.257812 -303.726562 33.40625 -318.53125 C 47.550781 -333.332031 68.25 -340.734375 95.5 -340.734375 C 122.75 -340.734375 143.445312 -333.332031 157.59375 -318.53125 C 171.738281 -303.726562 178.8125 -281.785156 178.8125 -252.703125 L 178.8125 -91.96875 C 178.8125 -61.570312 171.738281 -38.117188 157.59375 -21.609375 C 143.445312 -5.109375 122.75 3.140625 95.5 3.140625 Z M 95.5 -58.953125 C 101.519531 -58.953125 105.578125 -61.570312 107.671875 -66.8125 C 109.773438 -72.050781 110.828125 -79.382812 110.828125 -88.8125 L 110.828125 -253.875 C 110.828125 -261.207031 109.84375 -267.164062 107.875 -271.75 C 105.914062 -276.34375 101.921875 -278.640625 95.890625 -278.640625 C 84.628906 -278.640625 79 -270.125 79 -253.09375 L 79 -88.421875 C 79 -78.734375 80.175781 -71.398438 82.53125 -66.421875 C 84.882812 -61.441406 89.207031 -58.953125 95.5 -58.953125 Z M 95.5 -58.953125 "/></g></g></g><g fill="#ffffff" fill-opacity="1"><g transform="translate(724.540773, 422.239339)"><g><path d="M 95.5 3.140625 C 68.25 3.140625 47.550781 -5.175781 33.40625 -21.8125 C 19.257812 -38.445312 12.1875 -61.832031 12.1875 -91.96875 L 12.1875 -252.703125 C 12.1875 -281.785156 19.257812 -303.726562 33.40625 -318.53125 C 47.550781 -333.332031 68.25 -340.734375 95.5 -340.734375 C 122.75 -340.734375 143.445312 -333.332031 157.59375 -318.53125 C 171.738281 -303.726562 178.8125 -281.785156 178.8125 -252.703125 L 178.8125 -91.96875 C 178.8125 -61.570312 171.738281 -38.117188 157.59375 -21.609375 C 143.445312 -5.109375 122.75 3.140625 95.5 3.140625 Z M 95.5 -58.953125 C 101.519531 -58.953125 105.578125 -61.570312 107.671875 -66.8125 C 109.773438 -72.050781 110.828125 -79.382812 110.828125 -88.8125 L 110.828125 -253.875 C 110.828125 -261.207031 109.84375 -267.164062 107.875 -271.75 C 105.914062 -276.34375 101.921875 -278.640625 95.890625 -278.640625 C 84.628906 -278.640625 79 -270.125 79 -253.09375 L 79 -88.421875 C 79 -78.734375 80.175781 -71.398438 82.53125 -66.421875 C 84.882812 -61.441406 89.207031 -58.953125 95.5 -58.953125 Z M 95.5 -58.953125 "/></g></g></g><g fill="#ffffff" fill-opacity="1"><g transform="translate(915.526986, 422.239339)"><g><path d="M 14.9375 -337.59375 L 108.078125 -337.59375 C 132.179688 -337.59375 150.257812 -330.910156 162.3125 -317.546875 C 174.363281 -304.179688 180.519531 -284.398438 180.78125 -258.203125 L 181.5625 -100.21875 C 181.820312 -66.9375 176.054688 -41.910156 164.265625 -25.140625 C 152.484375 -8.378906 132.96875 0 105.71875 0 L 14.9375 0 Z M 94.71875 -59.734375 C 107.03125 -59.734375 113.1875 -65.757812 113.1875 -77.8125 L 113.1875 -251.90625 C 113.1875 -259.507812 112.59375 -265.207031 111.40625 -269 C 110.226562 -272.800781 108.066406 -275.359375 104.921875 -276.671875 C 101.785156 -277.984375 96.941406 -278.640625 90.390625 -278.640625 L 82.921875 -278.640625 L 82.921875 -59.734375 Z M 94.71875 -59.734375 "/></g></g></g><g fill="#ffffff" fill-opacity="1"><g transform="translate(1109.26404, 422.239339)"><g><path d="M 11.796875 0 L 11.796875 -337.59375 L 77.03125 -337.59375 L 77.03125 0 Z M 11.796875 0 "/></g></g></g><g fill="#ffffff" fill-opacity="1"><g transform="translate(1198.469534, 422.239339)"><g><path d="M 14.9375 0 L 14.9375 -337.59375 L 150.125 -337.59375 L 150.125 -271.953125 L 82.921875 -271.953125 L 82.921875 -218.109375 L 146.59375 -218.109375 L 146.59375 -153.265625 L 82.921875 -153.265625 L 82.921875 0 Z M 14.9375 0 "/></g></g></g><g fill="#ffffff" fill-opacity="1"><g transform="translate(1355.266846, 422.239339)"><g><path d="M 55.8125 0 L 55.8125 -111.21875 L 1.96875 -337.59375 L 68.78125 -337.59375 L 87.640625 -223.21875 L 106.5 -337.59375 L 173.3125 -337.59375 L 119.46875 -111.21875 L 119.46875 0 Z M 55.8125 0 "/></g></g></g><g fill="#ffffff" fill-opacity="1"><g transform="translate(231.682145, 487.933408)"><g><path d="M 10.453125 -36.0625 L 8.140625 -30.59375 C 9.273438 -29.832031 9.84375 -28.71875 9.84375 -27.25 C 9.84375 -26.019531 9.4375 -25.015625 8.625 -24.234375 C 7.820312 -23.453125 6.804688 -23.0625 5.578125 -23.0625 C 4.390625 -23.0625 3.394531 -23.4375 2.59375 -24.1875 C 1.789062 -24.9375 1.390625 -25.957031 1.390625 -27.25 C 1.390625 -28.34375 1.765625 -29.472656 2.515625 -30.640625 L 6.25 -36.0625 Z M 19.9375 -36.0625 L 17.625 -30.59375 C 18.75 -29.832031 19.3125 -28.71875 19.3125 -27.25 C 19.3125 -26.019531 18.910156 -25.015625 18.109375 -24.234375 C 17.304688 -23.453125 16.289062 -23.0625 15.0625 -23.0625 C 13.863281 -23.0625 12.863281 -23.4375 12.0625 -24.1875 C 11.257812 -24.9375 10.859375 -25.957031 10.859375 -27.25 C 10.859375 -28.34375 11.234375 -29.472656 11.984375 -30.640625 L 15.734375 -36.0625 Z M 19.9375 -36.0625 "/></g></g></g><g fill="#ffffff" fill-opacity="1"><g transform="translate(251.855159, 487.933408)"><g><path d="M 36.6875 0 L 27.5625 0 L 27.5625 -13.9375 L 12.703125 -13.9375 L 12.703125 0 L 3.59375 0 L 3.59375 -35.859375 L 12.703125 -35.859375 L 12.703125 -21.109375 L 27.5625 -21.109375 L 27.5625 -35.859375 L 36.6875 -35.859375 Z M 36.6875 0 "/></g></g></g><g fill="#ffffff" fill-opacity="1"><g transform="translate(292.098798, 487.933408)"><g><path d="M 27.40625 -6.609375 L 11.734375 -6.609375 L 9.125 0 L -0.25 0 L 15.21875 -35.859375 L 24.59375 -35.859375 L 39.703125 0 L 29.96875 0 Z M 24.75 -13.53125 L 19.625 -26.796875 L 14.390625 -13.53125 Z M 24.75 -13.53125 "/></g></g></g><g fill="#ffffff" fill-opacity="1"><g transform="translate(331.523221, 487.933408)"><g><path d="M 25.203125 0 L 19.875 -10.09375 L 12.703125 -10.09375 L 12.703125 0 L 3.59375 0 L 3.59375 -35.859375 L 19.625 -35.859375 C 24.375 -35.859375 28.046875 -34.773438 30.640625 -32.609375 C 33.234375 -30.441406 34.53125 -27.359375 34.53125 -23.359375 C 34.53125 -17.828125 32.363281 -13.984375 28.03125 -11.828125 L 35.5625 0 Z M 12.703125 -17.265625 L 19.625 -17.265625 C 21.601562 -17.265625 23.140625 -17.757812 24.234375 -18.75 C 25.328125 -19.738281 25.875 -21.175781 25.875 -23.0625 C 25.875 -24.90625 25.328125 -26.300781 24.234375 -27.25 C 23.140625 -28.207031 21.601562 -28.6875 19.625 -28.6875 L 12.703125 -28.6875 Z M 12.703125 -17.265625 "/></g></g></g><g fill="#ffffff" fill-opacity="1"><g transform="translate(368.592442, 487.933408)"><g><path d="M 42.984375 0 L 34.9375 0 L 34.890625 -23.3125 L 26.28125 -3.59375 L 20.34375 -3.59375 L 11.734375 -23.3125 L 11.734375 0 L 3.59375 0 L 3.59375 -35.921875 L 13.578125 -35.921875 L 23.3125 -14.546875 L 33.046875 -35.921875 L 42.984375 -35.921875 Z M 42.984375 0 "/></g></g></g><g fill="#ffffff" fill-opacity="1"><g transform="translate(415.18495, 487.933408)"><g><path d="M 20.59375 -36.171875 C 26.164062 -36.171875 30.796875 -34.4375 34.484375 -30.96875 C 38.171875 -27.5 40.015625 -23.171875 40.015625 -17.984375 C 40.015625 -12.753906 38.160156 -8.378906 34.453125 -4.859375 C 30.742188 -1.347656 26.125 0.40625 20.59375 0.40625 C 15.0625 0.40625 10.453125 -1.34375 6.765625 -4.84375 C 3.078125 -8.34375 1.234375 -12.722656 1.234375 -17.984375 C 1.234375 -23.210938 3.078125 -27.550781 6.765625 -31 C 10.453125 -34.445312 15.0625 -36.171875 20.59375 -36.171875 Z M 20.703125 -28.53125 C 17.898438 -28.53125 15.503906 -27.515625 13.515625 -25.484375 C 11.535156 -23.453125 10.546875 -20.929688 10.546875 -17.921875 C 10.546875 -14.921875 11.546875 -12.382812 13.546875 -10.3125 C 15.546875 -8.25 17.925781 -7.21875 20.6875 -7.21875 C 23.457031 -7.21875 25.804688 -8.25 27.734375 -10.3125 C 29.671875 -12.382812 30.640625 -14.921875 30.640625 -17.921875 C 30.640625 -20.929688 29.671875 -23.453125 27.734375 -25.484375 C 25.804688 -27.515625 23.460938 -28.53125 20.703125 -28.53125 Z M 20.703125 -28.53125 "/></g></g></g><g fill="#ffffff" fill-opacity="1"><g transform="translate(456.401403, 487.933408)"><g><path d="M 36.6875 0 L 28.640625 0 L 12.140625 -22.078125 L 12.140625 0 L 3.59375 0 L 3.59375 -35.859375 L 11.625 -35.859375 L 28.171875 -13.734375 L 28.171875 -35.859375 L 36.6875 -35.859375 Z M 36.6875 0 "/></g></g></g><g fill="#ffffff" fill-opacity="1"><g transform="translate(496.645042, 487.933408)"><g><path d="M 12.703125 0 L 3.59375 0 L 3.59375 -35.859375 L 12.703125 -35.859375 Z M 12.703125 0 "/></g></g></g><g fill="#ffffff" fill-opacity="1"><g transform="translate(512.926836, 487.933408)"><g><path d="M 32.796875 -30.015625 L 13.625 -7.21875 L 33.09375 -7.21875 L 33.09375 0 L 1.4375 0 L 1.4375 -5.84375 L 20.640625 -28.640625 L 2.09375 -28.640625 L 2.09375 -35.859375 L 32.796875 -35.859375 Z M 32.796875 -30.015625 "/></g></g></g><g fill="#ffffff" fill-opacity="1"><g transform="translate(547.487228, 487.933408)"><g><path d="M 31.65625 -28.6875 L 12.703125 -28.6875 L 12.703125 -21.5625 L 29.8125 -21.5625 L 29.8125 -14.390625 L 12.703125 -14.390625 L 12.703125 -7.171875 L 32.21875 -7.171875 L 32.21875 0 L 3.59375 0 L 3.59375 -35.859375 L 31.65625 -35.859375 Z M 31.65625 -28.6875 "/></g></g></g><g fill="#ffffff" fill-opacity="1"><g transform="translate(581.996411, 487.933408)"><g/></g></g><g fill="#ffffff" fill-opacity="1"><g transform="translate(593.874931, 487.933408)"><g><path d="M 22.078125 -11.578125 L 22.078125 0 L 13.015625 0 L 13.015625 -11.328125 L -0.25 -35.859375 L 8.859375 -35.859375 L 17.515625 -20.234375 L 25.96875 -35.859375 L 35.09375 -35.859375 Z M 22.078125 -11.578125 "/></g></g></g><g fill="#ffffff" fill-opacity="1"><g transform="translate(628.691305, 487.933408)"><g><path d="M 20.59375 -36.171875 C 26.164062 -36.171875 30.796875 -34.4375 34.484375 -30.96875 C 38.171875 -27.5 40.015625 -23.171875 40.015625 -17.984375 C 40.015625 -12.753906 38.160156 -8.378906 34.453125 -4.859375 C 30.742188 -1.347656 26.125 0.40625 20.59375 0.40625 C 15.0625 0.40625 10.453125 -1.34375 6.765625 -4.84375 C 3.078125 -8.34375 1.234375 -12.722656 1.234375 -17.984375 C 1.234375 -23.210938 3.078125 -27.550781 6.765625 -31 C 10.453125 -34.445312 15.0625 -36.171875 20.59375 -36.171875 Z M 20.703125 -28.53125 C 17.898438 -28.53125 15.503906 -27.515625 13.515625 -25.484375 C 11.535156 -23.453125 10.546875 -20.929688 10.546875 -17.921875 C 10.546875 -14.921875 11.546875 -12.382812 13.546875 -10.3125 C 15.546875 -8.25 17.925781 -7.21875 20.6875 -7.21875 C 23.457031 -7.21875 25.804688 -8.25 27.734375 -10.3125 C 29.671875 -12.382812 30.640625 -14.921875 30.640625 -17.921875 C 30.640625 -20.929688 29.671875 -23.453125 27.734375 -25.484375 C 25.804688 -27.515625 23.460938 -28.53125 20.703125 -28.53125 Z M 20.703125 -28.53125 "/></g></g></g><g fill="#ffffff" fill-opacity="1"><g transform="translate(669.907758, 487.933408)"><g><path d="M 35.859375 -35.859375 L 35.859375 -15.0625 C 35.859375 -10.3125 34.390625 -6.546875 31.453125 -3.765625 C 28.515625 -0.984375 24.535156 0.40625 19.515625 0.40625 C 14.460938 0.40625 10.441406 -0.984375 7.453125 -3.765625 C 4.460938 -6.546875 2.96875 -10.3125 2.96875 -15.0625 L 2.96875 -35.859375 L 12.09375 -35.859375 L 12.09375 -15.0625 C 12.09375 -12.664062 12.78125 -10.757812 14.15625 -9.34375 C 15.539062 -7.925781 17.347656 -7.21875 19.578125 -7.21875 C 21.753906 -7.21875 23.5 -7.914062 24.8125 -9.3125 C 26.132812 -10.71875 26.796875 -12.632812 26.796875 -15.0625 L 26.796875 -35.859375 Z M 35.859375 -35.859375 "/></g></g></g><g fill="#ffffff" fill-opacity="1"><g transform="translate(708.717799, 487.933408)"><g><path d="M 25.203125 0 L 19.875 -10.09375 L 12.703125 -10.09375 L 12.703125 0 L 3.59375 0 L 3.59375 -35.859375 L 19.625 -35.859375 C 24.375 -35.859375 28.046875 -34.773438 30.640625 -32.609375 C 33.234375 -30.441406 34.53125 -27.359375 34.53125 -23.359375 C 34.53125 -17.828125 32.363281 -13.984375 28.03125 -11.828125 L 35.5625 0 Z M 12.703125 -17.265625 L 19.625 -17.265625 C 21.601562 -17.265625 23.140625 -17.757812 24.234375 -18.75 C 25.328125 -19.738281 25.875 -21.175781 25.875 -23.0625 C 25.875 -24.90625 25.328125 -26.300781 24.234375 -27.25 C 23.140625 -28.207031 21.601562 -28.6875 19.625 -28.6875 L 12.703125 -28.6875 Z M 12.703125 -17.265625 "/></g></g></g><g fill="#ffffff" fill-opacity="1"><g transform="translate(745.78702, 487.933408)"><g/></g></g><g fill="#ffffff" fill-opacity="1"><g transform="translate(757.66554, 487.933408)"><g><path d="M 31.65625 -28.6875 L 12.703125 -28.6875 L 12.703125 -21.5625 L 29.8125 -21.5625 L 29.8125 -14.390625 L 12.703125 -14.390625 L 12.703125 -7.171875 L 32.21875 -7.171875 L 32.21875 0 L 3.59375 0 L 3.59375 -35.859375 L 31.65625 -35.859375 Z M 31.65625 -28.6875 "/></g></g></g><g fill="#ffffff" fill-opacity="1"><g transform="translate(792.174694, 487.933408)"><g><path d="M 42.984375 0 L 34.9375 0 L 34.890625 -23.3125 L 26.28125 -3.59375 L 20.34375 -3.59375 L 11.734375 -23.3125 L 11.734375 0 L 3.59375 0 L 3.59375 -35.921875 L 13.578125 -35.921875 L 23.3125 -14.546875 L 33.046875 -35.921875 L 42.984375 -35.921875 Z M 42.984375 0 "/></g></g></g><g fill="#ffffff" fill-opacity="1"><g transform="translate(838.767203, 487.933408)"><g><path d="M 20.59375 -36.171875 C 26.164062 -36.171875 30.796875 -34.4375 34.484375 -30.96875 C 38.171875 -27.5 40.015625 -23.171875 40.015625 -17.984375 C 40.015625 -12.753906 38.160156 -8.378906 34.453125 -4.859375 C 30.742188 -1.347656 26.125 0.40625 20.59375 0.40625 C 15.0625 0.40625 10.453125 -1.34375 6.765625 -4.84375 C 3.078125 -8.34375 1.234375 -12.722656 1.234375 -17.984375 C 1.234375 -23.210938 3.078125 -27.550781 6.765625 -31 C 10.453125 -34.445312 15.0625 -36.171875 20.59375 -36.171875 Z M 20.703125 -28.53125 C 17.898438 -28.53125 15.503906 -27.515625 13.515625 -25.484375 C 11.535156 -23.453125 10.546875 -20.929688 10.546875 -17.921875 C 10.546875 -14.921875 11.546875 -12.382812 13.546875 -10.3125 C 15.546875 -8.25 17.925781 -7.21875 20.6875 -7.21875 C 23.457031 -7.21875 25.804688 -8.25 27.734375 -10.3125 C 29.671875 -12.382812 30.640625 -14.921875 30.640625 -17.921875 C 30.640625 -20.929688 29.671875 -23.453125 27.734375 -25.484375 C 25.804688 -27.515625 23.460938 -28.53125 20.703125 -28.53125 Z M 20.703125 -28.53125 "/></g></g></g><g fill="#ffffff" fill-opacity="1"><g transform="translate(879.983655, 487.933408)"><g><path d="M 31 -28.53125 L 20.1875 -28.53125 L 20.1875 0 L 11.0625 0 L 11.0625 -28.53125 L 0.359375 -28.53125 L 0.359375 -35.921875 L 31 -35.921875 Z M 31 -28.53125 "/></g></g></g><g fill="#ffffff" fill-opacity="1"><g transform="translate(911.26721, 487.933408)"><g><path d="M 12.703125 0 L 3.59375 0 L 3.59375 -35.859375 L 12.703125 -35.859375 Z M 12.703125 0 "/></g></g></g><g fill="#ffffff" fill-opacity="1"><g transform="translate(927.549005, 487.933408)"><g><path d="M 20.59375 -36.171875 C 26.164062 -36.171875 30.796875 -34.4375 34.484375 -30.96875 C 38.171875 -27.5 40.015625 -23.171875 40.015625 -17.984375 C 40.015625 -12.753906 38.160156 -8.378906 34.453125 -4.859375 C 30.742188 -1.347656 26.125 0.40625 20.59375 0.40625 C 15.0625 0.40625 10.453125 -1.34375 6.765625 -4.84375 C 3.078125 -8.34375 1.234375 -12.722656 1.234375 -17.984375 C 1.234375 -23.210938 3.078125 -27.550781 6.765625 -31 C 10.453125 -34.445312 15.0625 -36.171875 20.59375 -36.171875 Z M 20.703125 -28.53125 C 17.898438 -28.53125 15.503906 -27.515625 13.515625 -25.484375 C 11.535156 -23.453125 10.546875 -20.929688 10.546875 -17.921875 C 10.546875 -14.921875 11.546875 -12.382812 13.546875 -10.3125 C 15.546875 -8.25 17.925781 -7.21875 20.6875 -7.21875 C 23.457031 -7.21875 25.804688 -8.25 27.734375 -10.3125 C 29.671875 -12.382812 30.640625 -14.921875 30.640625 -17.921875 C 30.640625 -20.929688 29.671875 -23.453125 27.734375 -25.484375 C 25.804688 -27.515625 23.460938 -28.53125 20.703125 -28.53125 Z M 20.703125 -28.53125 "/></g></g></g><g fill="#ffffff" fill-opacity="1"><g transform="translate(968.765457, 487.933408)"><g><path d="M 36.6875 0 L 28.640625 0 L 12.140625 -22.078125 L 12.140625 0 L 3.59375 0 L 3.59375 -35.859375 L 11.625 -35.859375 L 28.171875 -13.734375 L 28.171875 -35.859375 L 36.6875 -35.859375 Z M 36.6875 0 "/></g></g></g><g fill="#ffffff" fill-opacity="1"><g transform="translate(1009.009067, 487.933408)"><g><path d="M 17.375 -36.28125 C 22.726562 -36.28125 27.441406 -34.945312 31.515625 -32.28125 L 28.078125 -25.15625 C 26.203125 -26.25 24.1875 -27.144531 22.03125 -27.84375 C 19.875 -28.539062 18.0625 -28.890625 16.59375 -28.890625 C 13.96875 -28.890625 12.65625 -28.019531 12.65625 -26.28125 C 12.65625 -25.15625 13.300781 -24.25 14.59375 -23.5625 C 15.894531 -22.882812 17.476562 -22.296875 19.34375 -21.796875 C 21.207031 -21.304688 23.066406 -20.707031 24.921875 -20 C 26.785156 -19.300781 28.363281 -18.164062 29.65625 -16.59375 C 30.957031 -15.03125 31.609375 -13.050781 31.609375 -10.65625 C 31.609375 -7.207031 30.257812 -4.515625 27.5625 -2.578125 C 24.863281 -0.648438 21.429688 0.3125 17.265625 0.3125 C 14.296875 0.3125 11.359375 -0.195312 8.453125 -1.21875 C 5.546875 -2.25 3.019531 -3.65625 0.875 -5.4375 L 4.40625 -12.453125 C 6.21875 -10.878906 8.351562 -9.585938 10.8125 -8.578125 C 13.269531 -7.578125 15.457031 -7.078125 17.375 -7.078125 C 18.84375 -7.078125 19.984375 -7.335938 20.796875 -7.859375 C 21.617188 -8.390625 22.03125 -9.171875 22.03125 -10.203125 C 22.03125 -11.191406 21.5625 -12.015625 20.625 -12.671875 C 19.6875 -13.335938 18.515625 -13.832031 17.109375 -14.15625 C 15.710938 -14.488281 14.191406 -14.925781 12.546875 -15.46875 C 10.910156 -16.019531 9.390625 -16.617188 7.984375 -17.265625 C 6.585938 -17.910156 5.421875 -18.941406 4.484375 -20.359375 C 3.546875 -21.773438 3.078125 -23.476562 3.078125 -25.46875 C 3.078125 -28.738281 4.378906 -31.359375 6.984375 -33.328125 C 9.597656 -35.296875 13.0625 -36.28125 17.375 -36.28125 Z M 17.375 -36.28125 "/></g></g></g><g fill="#ffffff" fill-opacity="1"><g transform="translate(1041.982205, 487.933408)"><g/></g></g><g fill="#ffffff" fill-opacity="1"><g transform="translate(1053.860726, 487.933408)"><g><path d="M 43.90625 0 L 34.53125 0 L 27.875 -24.796875 L 21.109375 0 L 11.6875 0 L -0.046875 -35.859375 L 9.6875 -35.859375 L 16.703125 -9.484375 L 23.5625 -35.859375 L 32.484375 -35.859375 L 39.5 -9.484375 L 46.421875 -35.859375 L 55.75 -35.859375 Z M 43.90625 0 "/></g></g></g><g fill="#ffffff" fill-opacity="1"><g transform="translate(1109.208515, 487.933408)"><g><path d="M 12.703125 0 L 3.59375 0 L 3.59375 -35.859375 L 12.703125 -35.859375 Z M 12.703125 0 "/></g></g></g><g fill="#ffffff" fill-opacity="1"><g transform="translate(1125.490309, 487.933408)"><g><path d="M 31 -28.53125 L 20.1875 -28.53125 L 20.1875 0 L 11.0625 0 L 11.0625 -28.53125 L 0.359375 -28.53125 L 0.359375 -35.921875 L 31 -35.921875 Z M 31 -28.53125 "/></g></g></g><g fill="#ffffff" fill-opacity="1"><g transform="translate(1156.773865, 487.933408)"><g><path d="M 36.6875 0 L 27.5625 0 L 27.5625 -13.9375 L 12.703125 -13.9375 L 12.703125 0 L 3.59375 0 L 3.59375 -35.859375 L 12.703125 -35.859375 L 12.703125 -21.109375 L 27.5625 -21.109375 L 27.5625 -35.859375 L 36.6875 -35.859375 Z M 36.6875 0 "/></g></g></g><g fill="#ffffff" fill-opacity="1"><g transform="translate(1197.017535, 487.933408)"><g/></g></g><g fill="#ffffff" fill-opacity="1"><g transform="translate(1208.896055, 487.933408)"><g><path d="M 42.984375 0 L 34.9375 0 L 34.890625 -23.3125 L 26.28125 -3.59375 L 20.34375 -3.59375 L 11.734375 -23.3125 L 11.734375 0 L 3.59375 0 L 3.59375 -35.921875 L 13.578125 -35.921875 L 23.3125 -14.546875 L 33.046875 -35.921875 L 42.984375 -35.921875 Z M 42.984375 0 "/></g></g></g><g fill="#ffffff" fill-opacity="1"><g transform="translate(1255.488564, 487.933408)"><g><path d="M 20.59375 -36.171875 C 26.164062 -36.171875 30.796875 -34.4375 34.484375 -30.96875 C 38.171875 -27.5 40.015625 -23.171875 40.015625 -17.984375 C 40.015625 -12.753906 38.160156 -8.378906 34.453125 -4.859375 C 30.742188 -1.347656 26.125 0.40625 20.59375 0.40625 C 15.0625 0.40625 10.453125 -1.34375 6.765625 -4.84375 C 3.078125 -8.34375 1.234375 -12.722656 1.234375 -17.984375 C 1.234375 -23.210938 3.078125 -27.550781 6.765625 -31 C 10.453125 -34.445312 15.0625 -36.171875 20.59375 -36.171875 Z M 20.703125 -28.53125 C 17.898438 -28.53125 15.503906 -27.515625 13.515625 -25.484375 C 11.535156 -23.453125 10.546875 -20.929688 10.546875 -17.921875 C 10.546875 -14.921875 11.546875 -12.382812 13.546875 -10.3125 C 15.546875 -8.25 17.925781 -7.21875 20.6875 -7.21875 C 23.457031 -7.21875 25.804688 -8.25 27.734375 -10.3125 C 29.671875 -12.382812 30.640625 -14.921875 30.640625 -17.921875 C 30.640625 -20.929688 29.671875 -23.453125 27.734375 -25.484375 C 25.804688 -27.515625 23.460938 -28.53125 20.703125 -28.53125 Z M 20.703125 -28.53125 "/></g></g></g><g fill="#ffffff" fill-opacity="1"><g transform="translate(1296.705016, 487.933408)"><g><path d="M 20.59375 -36.171875 C 26.164062 -36.171875 30.796875 -34.4375 34.484375 -30.96875 C 38.171875 -27.5 40.015625 -23.171875 40.015625 -17.984375 C 40.015625 -12.753906 38.160156 -8.378906 34.453125 -4.859375 C 30.742188 -1.347656 26.125 0.40625 20.59375 0.40625 C 15.0625 0.40625 10.453125 -1.34375 6.765625 -4.84375 C 3.078125 -8.34375 1.234375 -12.722656 1.234375 -17.984375 C 1.234375 -23.210938 3.078125 -27.550781 6.765625 -31 C 10.453125 -34.445312 15.0625 -36.171875 20.59375 -36.171875 Z M 20.703125 -28.53125 C 17.898438 -28.53125 15.503906 -27.515625 13.515625 -25.484375 C 11.535156 -23.453125 10.546875 -20.929688 10.546875 -17.921875 C 10.546875 -14.921875 11.546875 -12.382812 13.546875 -10.3125 C 15.546875 -8.25 17.925781 -7.21875 20.6875 -7.21875 C 23.457031 -7.21875 25.804688 -8.25 27.734375 -10.3125 C 29.671875 -12.382812 30.640625 -14.921875 30.640625 -17.921875 C 30.640625 -20.929688 29.671875 -23.453125 27.734375 -25.484375 C 25.804688 -27.515625 23.460938 -28.53125 20.703125 -28.53125 Z M 20.703125 -28.53125 "/></g></g></g><g fill="#ffffff" fill-opacity="1"><g transform="translate(1337.921468, 487.933408)"><g><path d="M 3.59375 -35.859375 L 19.015625 -35.859375 C 24.648438 -35.859375 29.234375 -34.203125 32.765625 -30.890625 C 36.296875 -27.578125 38.0625 -23.257812 38.0625 -17.9375 C 38.0625 -12.632812 36.269531 -8.316406 32.6875 -4.984375 C 29.101562 -1.660156 24.425781 0 18.65625 0 L 3.59375 0 Z M 12.703125 -28.59375 L 12.703125 -7.28125 L 19.21875 -7.28125 C 22.019531 -7.28125 24.316406 -8.257812 26.109375 -10.21875 C 27.898438 -12.1875 28.796875 -14.738281 28.796875 -17.875 C 28.796875 -21.019531 27.851562 -23.59375 25.96875 -25.59375 C 24.09375 -27.59375 21.703125 -28.59375 18.796875 -28.59375 Z M 12.703125 -28.59375 "/></g></g></g><g fill="#ffffff" fill-opacity="1"><g transform="translate(1377.192354, 487.933408)"><g><path d="M 12.703125 0 L 3.59375 0 L 3.59375 -35.859375 L 12.703125 -35.859375 Z M 12.703125 0 "/></g></g></g><g fill="#ffffff" fill-opacity="1"><g transform="translate(1393.474148, 487.933408)"><g><path d="M 30.171875 -28.6875 L 12.703125 -28.6875 L 12.703125 -20.390625 L 28.796875 -20.390625 L 28.796875 -13.21875 L 12.703125 -13.21875 L 12.703125 0 L 3.59375 0 L 3.59375 -35.859375 L 30.171875 -35.859375 Z M 30.171875 -28.6875 "/></g></g></g><g fill="#ffffff" fill-opacity="1"><g transform="translate(1424.399304, 487.933408)"><g><path d="M 22.078125 -11.578125 L 22.078125 0 L 13.015625 0 L 13.015625 -11.328125 L -0.25 -35.859375 L 8.859375 -35.859375 L 17.515625 -20.234375 L 25.96875 -35.859375 L 35.09375 -35.859375 Z M 22.078125 -11.578125 "/></g></g></g><g fill="#ffffff" fill-opacity="1"><g transform="translate(1459.215709, 487.933408)"><g><path d="M 9.734375 -21.875 L 3.078125 -21.875 L 3.078125 -35.859375 L 9.734375 -35.859375 Z M 19.421875 -21.875 L 12.75 -21.875 L 12.75 -35.859375 L 19.421875 -35.859375 Z M 19.421875 -21.875 "/></g></g></g></svg>