<svg xmlns="http://www.w3.org/2000/svg" xmlns:xlink="http://www.w3.org/1999/xlink" width="500" zoomAndPan="magnify" viewBox="0 0 375 374.999991" height="500" preserveAspectRatio="xMidYMid meet" version="1.0"><defs><g/></defs><g fill="#ffffff" fill-opacity="1"><g transform="translate(50.684903, 221.080904)"><g><path d="M 3.171875 0 L 3.171875 -71.59375 L 25 -71.59375 L 31 -27.921875 L 37 -71.59375 L 59 -71.59375 L 59 0 L 45.921875 0 L 45.921875 -51.59375 L 37.671875 0 L 24.84375 0 L 16.078125 -51.59375 L 16.078125 0 Z M 3.171875 0 "/></g></g></g><g fill="#ffffff" fill-opacity="1"><g transform="translate(112.859779, 221.080904)"><g><path d="M 20.25 0.671875 C 14.46875 0.671875 10.078125 -1.09375 7.078125 -4.625 C 4.078125 -8.15625 2.578125 -13.113281 2.578125 -19.5 L 2.578125 -53.59375 C 2.578125 -59.757812 4.078125 -64.410156 7.078125 -67.546875 C 10.078125 -70.691406 14.46875 -72.265625 20.25 -72.265625 C 26.03125 -72.265625 30.421875 -70.691406 33.421875 -67.546875 C 36.421875 -64.410156 37.921875 -59.757812 37.921875 -53.59375 L 37.921875 -19.5 C 37.921875 -13.050781 36.421875 -8.078125 33.421875 -4.578125 C 30.421875 -1.078125 26.03125 0.671875 20.25 0.671875 Z M 20.25 -12.5 C 21.53125 -12.5 22.390625 -13.050781 22.828125 -14.15625 C 23.273438 -15.269531 23.5 -16.828125 23.5 -18.828125 L 23.5 -53.84375 C 23.5 -55.394531 23.289062 -56.65625 22.875 -57.625 C 22.457031 -58.601562 21.609375 -59.09375 20.328125 -59.09375 C 17.941406 -59.09375 16.75 -57.285156 16.75 -53.671875 L 16.75 -18.75 C 16.75 -16.695312 17 -15.140625 17.5 -14.078125 C 18 -13.023438 18.914062 -12.5 20.25 -12.5 Z M 20.25 -12.5 "/></g></g></g><g fill="#ffffff" fill-opacity="1"><g transform="translate(153.365129, 221.080904)"><g><path d="M 20.25 0.671875 C 14.46875 0.671875 10.078125 -1.09375 7.078125 -4.625 C 4.078125 -8.15625 2.578125 -13.113281 2.578125 -19.5 L 2.578125 -53.59375 C 2.578125 -59.757812 4.078125 -64.410156 7.078125 -67.546875 C 10.078125 -70.691406 14.46875 -72.265625 20.25 -72.265625 C 26.03125 -72.265625 30.421875 -70.691406 33.421875 -67.546875 C 36.421875 -64.410156 37.921875 -59.757812 37.921875 -53.59375 L 37.921875 -19.5 C 37.921875 -13.050781 36.421875 -8.078125 33.421875 -4.578125 C 30.421875 -1.078125 26.03125 0.671875 20.25 0.671875 Z M 20.25 -12.5 C 21.53125 -12.5 22.390625 -13.050781 22.828125 -14.15625 C 23.273438 -15.269531 23.5 -16.828125 23.5 -18.828125 L 23.5 -53.84375 C 23.5 -55.394531 23.289062 -56.65625 22.875 -57.625 C 22.457031 -58.601562 21.609375 -59.09375 20.328125 -59.09375 C 17.941406 -59.09375 16.75 -57.285156 16.75 -53.671875 L 16.75 -18.75 C 16.75 -16.695312 17 -15.140625 17.5 -14.078125 C 18 -13.023438 18.914062 -12.5 20.25 -12.5 Z M 20.25 -12.5 "/></g></g></g><g fill="#ffffff" fill-opacity="1"><g transform="translate(193.870486, 221.080904)"><g><path d="M 3.171875 -71.59375 L 22.921875 -71.59375 C 28.035156 -71.59375 31.867188 -70.175781 34.421875 -67.34375 C 36.972656 -64.507812 38.28125 -60.3125 38.34375 -54.75 L 38.5 -21.25 C 38.5625 -14.195312 37.34375 -8.890625 34.84375 -5.328125 C 32.34375 -1.773438 28.203125 0 22.421875 0 L 3.171875 0 Z M 20.078125 -12.671875 C 22.691406 -12.671875 24 -13.945312 24 -16.5 L 24 -53.421875 C 24 -55.035156 23.875 -56.242188 23.625 -57.046875 C 23.375 -57.847656 22.914062 -58.390625 22.25 -58.671875 C 21.582031 -58.953125 20.554688 -59.09375 19.171875 -59.09375 L 17.578125 -59.09375 L 17.578125 -12.671875 Z M 20.078125 -12.671875 "/></g></g></g><g fill="#ffffff" fill-opacity="1"><g transform="translate(234.959245, 221.080904)"><g><path d="M 2.5 0 L 2.5 -71.59375 L 16.328125 -71.59375 L 16.328125 0 Z M 2.5 0 "/></g></g></g><g fill="#ffffff" fill-opacity="1"><g transform="translate(253.878411, 221.080904)"><g><path d="M 3.171875 0 L 3.171875 -71.59375 L 31.84375 -71.59375 L 31.84375 -57.671875 L 17.578125 -57.671875 L 17.578125 -46.25 L 31.09375 -46.25 L 31.09375 -32.5 L 17.578125 -32.5 L 17.578125 0 Z M 3.171875 0 "/></g></g></g><g fill="#ffffff" fill-opacity="1"><g transform="translate(287.132802, 221.080904)"><g><path d="M 11.828125 0 L 11.828125 -23.59375 L 0.421875 -71.59375 L 14.578125 -71.59375 L 18.578125 -47.34375 L 22.59375 -71.59375 L 36.75 -71.59375 L 25.34375 -23.59375 L 25.34375 0 Z M 11.828125 0 "/></g></g></g><g fill="#ffffff" fill-opacity="1"><g transform="translate(48.835816, 234.780334)"><g><path d="M 2.21875 -7.640625 L 1.734375 -6.484375 C 1.960938 -6.328125 2.078125 -6.09375 2.078125 -5.78125 C 2.078125 -5.519531 1.992188 -5.304688 1.828125 -5.140625 C 1.660156 -4.972656 1.445312 -4.890625 1.1875 -4.890625 C 0.925781 -4.890625 0.710938 -4.96875 0.546875 -5.125 C 0.378906 -5.28125 0.296875 -5.5 0.296875 -5.78125 C 0.296875 -6.007812 0.375 -6.25 0.53125 -6.5 L 1.328125 -7.640625 Z M 4.21875 -7.640625 L 3.734375 -6.484375 C 3.972656 -6.328125 4.09375 -6.09375 4.09375 -5.78125 C 4.09375 -5.519531 4.003906 -5.304688 3.828125 -5.140625 C 3.660156 -4.972656 3.445312 -4.890625 3.1875 -4.890625 C 2.9375 -4.890625 2.722656 -4.96875 2.546875 -5.125 C 2.378906 -5.28125 2.296875 -5.5 2.296875 -5.78125 C 2.296875 -6.007812 2.378906 -6.25 2.546875 -6.5 L 3.328125 -7.640625 Z M 4.21875 -7.640625 "/></g></g></g><g fill="#ffffff" fill-opacity="1"><g transform="translate(53.114182, 234.780334)"><g><path d="M 7.78125 0 L 5.84375 0 L 5.84375 -2.953125 L 2.6875 -2.953125 L 2.6875 0 L 0.765625 0 L 0.765625 -7.609375 L 2.6875 -7.609375 L 2.6875 -4.46875 L 5.84375 -4.46875 L 5.84375 -7.609375 L 7.78125 -7.609375 Z M 7.78125 0 "/></g></g></g><g fill="#ffffff" fill-opacity="1"><g transform="translate(61.649201, 234.780334)"><g><path d="M 5.8125 -1.40625 L 2.484375 -1.40625 L 1.9375 0 L -0.046875 0 L 3.21875 -7.609375 L 5.21875 -7.609375 L 8.421875 0 L 6.359375 0 Z M 5.25 -2.859375 L 4.15625 -5.671875 L 3.046875 -2.859375 Z M 5.25 -2.859375 "/></g></g></g><g fill="#ffffff" fill-opacity="1"><g transform="translate(70.010477, 234.780334)"><g><path d="M 5.34375 0 L 4.21875 -2.140625 L 2.6875 -2.140625 L 2.6875 0 L 0.765625 0 L 0.765625 -7.609375 L 4.15625 -7.609375 C 5.164062 -7.609375 5.941406 -7.375 6.484375 -6.90625 C 7.035156 -6.445312 7.3125 -5.796875 7.3125 -4.953125 C 7.3125 -3.773438 6.851562 -2.960938 5.9375 -2.515625 L 7.53125 0 Z M 2.6875 -3.65625 L 4.15625 -3.65625 C 4.570312 -3.65625 4.894531 -3.757812 5.125 -3.96875 C 5.363281 -4.1875 5.484375 -4.492188 5.484375 -4.890625 C 5.484375 -5.273438 5.363281 -5.566406 5.125 -5.765625 C 4.894531 -5.972656 4.570312 -6.078125 4.15625 -6.078125 L 2.6875 -6.078125 Z M 2.6875 -3.65625 "/></g></g></g><g fill="#ffffff" fill-opacity="1"><g transform="translate(77.872254, 234.780334)"><g><path d="M 9.109375 0 L 7.40625 0 L 7.390625 -4.9375 L 5.578125 -0.765625 L 4.3125 -0.765625 L 2.484375 -4.9375 L 2.484375 0 L 0.765625 0 L 0.765625 -7.609375 L 2.875 -7.609375 L 4.9375 -3.078125 L 7 -7.609375 L 9.109375 -7.609375 Z M 9.109375 0 "/></g></g></g><g fill="#ffffff" fill-opacity="1"><g transform="translate(87.753764, 234.780334)"><g><path d="M 4.359375 -7.671875 C 5.546875 -7.671875 6.53125 -7.300781 7.3125 -6.5625 C 8.09375 -5.832031 8.484375 -4.914062 8.484375 -3.8125 C 8.484375 -2.707031 8.085938 -1.78125 7.296875 -1.03125 C 6.515625 -0.28125 5.535156 0.09375 4.359375 0.09375 C 3.191406 0.09375 2.21875 -0.273438 1.4375 -1.015625 C 0.65625 -1.765625 0.265625 -2.695312 0.265625 -3.8125 C 0.265625 -4.914062 0.65625 -5.832031 1.4375 -6.5625 C 2.21875 -7.300781 3.191406 -7.671875 4.359375 -7.671875 Z M 4.390625 -6.046875 C 3.796875 -6.046875 3.285156 -5.828125 2.859375 -5.390625 C 2.441406 -4.960938 2.234375 -4.429688 2.234375 -3.796875 C 2.234375 -3.160156 2.441406 -2.625 2.859375 -2.1875 C 3.285156 -1.75 3.789062 -1.53125 4.375 -1.53125 C 4.96875 -1.53125 5.46875 -1.75 5.875 -2.1875 C 6.289062 -2.625 6.5 -3.160156 6.5 -3.796875 C 6.5 -4.429688 6.289062 -4.960938 5.875 -5.390625 C 5.46875 -5.828125 4.972656 -6.046875 4.390625 -6.046875 Z M 4.390625 -6.046875 "/></g></g></g><g fill="#ffffff" fill-opacity="1"><g transform="translate(96.4951, 234.780334)"><g><path d="M 7.78125 0 L 6.078125 0 L 2.578125 -4.6875 L 2.578125 0 L 0.765625 0 L 0.765625 -7.609375 L 2.46875 -7.609375 L 5.96875 -2.90625 L 5.96875 -7.609375 L 7.78125 -7.609375 Z M 7.78125 0 "/></g></g></g><g fill="#ffffff" fill-opacity="1"><g transform="translate(105.030119, 234.780334)"><g><path d="M 2.6875 0 L 0.765625 0 L 0.765625 -7.609375 L 2.6875 -7.609375 Z M 2.6875 0 "/></g></g></g><g fill="#ffffff" fill-opacity="1"><g transform="translate(108.483221, 234.780334)"><g><path d="M 6.953125 -6.359375 L 2.890625 -1.53125 L 7.015625 -1.53125 L 7.015625 0 L 0.296875 0 L 0.296875 -1.234375 L 4.375 -6.078125 L 0.4375 -6.078125 L 0.4375 -7.609375 L 6.953125 -7.609375 Z M 6.953125 -6.359375 "/></g></g></g><g fill="#ffffff" fill-opacity="1"><g transform="translate(115.812916, 234.780334)"><g><path d="M 6.71875 -6.078125 L 2.6875 -6.078125 L 2.6875 -4.578125 L 6.3125 -4.578125 L 6.3125 -3.046875 L 2.6875 -3.046875 L 2.6875 -1.515625 L 6.828125 -1.515625 L 6.828125 0 L 0.765625 0 L 0.765625 -7.609375 L 6.71875 -7.609375 Z M 6.71875 -6.078125 "/></g></g></g><g fill="#ffffff" fill-opacity="1"><g transform="translate(123.13175, 234.780334)"><g/></g></g><g fill="#ffffff" fill-opacity="1"><g transform="translate(125.65099, 234.780334)"><g><path d="M 4.6875 -2.453125 L 4.6875 0 L 2.765625 0 L 2.765625 -2.40625 L -0.046875 -7.609375 L 1.875 -7.609375 L 3.71875 -4.296875 L 5.5 -7.609375 L 7.4375 -7.609375 Z M 4.6875 -2.453125 "/></g></g></g><g fill="#ffffff" fill-opacity="1"><g transform="translate(133.034975, 234.780334)"><g><path d="M 4.359375 -7.671875 C 5.546875 -7.671875 6.53125 -7.300781 7.3125 -6.5625 C 8.09375 -5.832031 8.484375 -4.914062 8.484375 -3.8125 C 8.484375 -2.707031 8.085938 -1.78125 7.296875 -1.03125 C 6.515625 -0.28125 5.535156 0.09375 4.359375 0.09375 C 3.191406 0.09375 2.21875 -0.273438 1.4375 -1.015625 C 0.65625 -1.765625 0.265625 -2.695312 0.265625 -3.8125 C 0.265625 -4.914062 0.65625 -5.832031 1.4375 -6.5625 C 2.21875 -7.300781 3.191406 -7.671875 4.359375 -7.671875 Z M 4.390625 -6.046875 C 3.796875 -6.046875 3.285156 -5.828125 2.859375 -5.390625 C 2.441406 -4.960938 2.234375 -4.429688 2.234375 -3.796875 C 2.234375 -3.160156 2.441406 -2.625 2.859375 -2.1875 C 3.285156 -1.75 3.789062 -1.53125 4.375 -1.53125 C 4.96875 -1.53125 5.46875 -1.75 5.875 -2.1875 C 6.289062 -2.625 6.5 -3.160156 6.5 -3.796875 C 6.5 -4.429688 6.289062 -4.960938 5.875 -5.390625 C 5.46875 -5.828125 4.972656 -6.046875 4.390625 -6.046875 Z M 4.390625 -6.046875 "/></g></g></g><g fill="#ffffff" fill-opacity="1"><g transform="translate(141.776311, 234.780334)"><g><path d="M 7.609375 -7.609375 L 7.609375 -3.1875 C 7.609375 -2.1875 7.296875 -1.390625 6.671875 -0.796875 C 6.046875 -0.203125 5.203125 0.09375 4.140625 0.09375 C 3.066406 0.09375 2.210938 -0.203125 1.578125 -0.796875 C 0.941406 -1.390625 0.625 -2.1875 0.625 -3.1875 L 0.625 -7.609375 L 2.5625 -7.609375 L 2.5625 -3.1875 C 2.5625 -2.6875 2.707031 -2.285156 3 -1.984375 C 3.289062 -1.679688 3.671875 -1.53125 4.140625 -1.53125 C 4.609375 -1.53125 4.976562 -1.675781 5.25 -1.96875 C 5.53125 -2.269531 5.671875 -2.675781 5.671875 -3.1875 L 5.671875 -7.609375 Z M 7.609375 -7.609375 "/></g></g></g><g fill="#ffffff" fill-opacity="1"><g transform="translate(150.007287, 234.780334)"><g><path d="M 5.34375 0 L 4.21875 -2.140625 L 2.6875 -2.140625 L 2.6875 0 L 0.765625 0 L 0.765625 -7.609375 L 4.15625 -7.609375 C 5.164062 -7.609375 5.941406 -7.375 6.484375 -6.90625 C 7.035156 -6.445312 7.3125 -5.796875 7.3125 -4.953125 C 7.3125 -3.773438 6.851562 -2.960938 5.9375 -2.515625 L 7.53125 0 Z M 2.6875 -3.65625 L 4.15625 -3.65625 C 4.570312 -3.65625 4.894531 -3.757812 5.125 -3.96875 C 5.363281 -4.1875 5.484375 -4.492188 5.484375 -4.890625 C 5.484375 -5.273438 5.363281 -5.566406 5.125 -5.765625 C 4.894531 -5.972656 4.570312 -6.078125 4.15625 -6.078125 L 2.6875 -6.078125 Z M 2.6875 -3.65625 "/></g></g></g><g fill="#ffffff" fill-opacity="1"><g transform="translate(157.869063, 234.780334)"><g/></g></g><g fill="#ffffff" fill-opacity="1"><g transform="translate(160.388303, 234.780334)"><g><path d="M 6.71875 -6.078125 L 2.6875 -6.078125 L 2.6875 -4.578125 L 6.3125 -4.578125 L 6.3125 -3.046875 L 2.6875 -3.046875 L 2.6875 -1.515625 L 6.828125 -1.515625 L 6.828125 0 L 0.765625 0 L 0.765625 -7.609375 L 6.71875 -7.609375 Z M 6.71875 -6.078125 "/></g></g></g><g fill="#ffffff" fill-opacity="1"><g transform="translate(167.707131, 234.780334)"><g><path d="M 9.109375 0 L 7.40625 0 L 7.390625 -4.9375 L 5.578125 -0.765625 L 4.3125 -0.765625 L 2.484375 -4.9375 L 2.484375 0 L 0.765625 0 L 0.765625 -7.609375 L 2.875 -7.609375 L 4.9375 -3.078125 L 7 -7.609375 L 9.109375 -7.609375 Z M 9.109375 0 "/></g></g></g><g fill="#ffffff" fill-opacity="1"><g transform="translate(177.588641, 234.780334)"><g><path d="M 4.359375 -7.671875 C 5.546875 -7.671875 6.53125 -7.300781 7.3125 -6.5625 C 8.09375 -5.832031 8.484375 -4.914062 8.484375 -3.8125 C 8.484375 -2.707031 8.085938 -1.78125 7.296875 -1.03125 C 6.515625 -0.28125 5.535156 0.09375 4.359375 0.09375 C 3.191406 0.09375 2.21875 -0.273438 1.4375 -1.015625 C 0.65625 -1.765625 0.265625 -2.695312 0.265625 -3.8125 C 0.265625 -4.914062 0.65625 -5.832031 1.4375 -6.5625 C 2.21875 -7.300781 3.191406 -7.671875 4.359375 -7.671875 Z M 4.390625 -6.046875 C 3.796875 -6.046875 3.285156 -5.828125 2.859375 -5.390625 C 2.441406 -4.960938 2.234375 -4.429688 2.234375 -3.796875 C 2.234375 -3.160156 2.441406 -2.625 2.859375 -2.1875 C 3.285156 -1.75 3.789062 -1.53125 4.375 -1.53125 C 4.96875 -1.53125 5.46875 -1.75 5.875 -2.1875 C 6.289062 -2.625 6.5 -3.160156 6.5 -3.796875 C 6.5 -4.429688 6.289062 -4.960938 5.875 -5.390625 C 5.46875 -5.828125 4.972656 -6.046875 4.390625 -6.046875 Z M 4.390625 -6.046875 "/></g></g></g><g fill="#ffffff" fill-opacity="1"><g transform="translate(186.329978, 234.780334)"><g><path d="M 6.5625 -6.046875 L 4.28125 -6.046875 L 4.28125 0 L 2.34375 0 L 2.34375 -6.046875 L 0.078125 -6.046875 L 0.078125 -7.609375 L 6.5625 -7.609375 Z M 6.5625 -6.046875 "/></g></g></g><g fill="#ffffff" fill-opacity="1"><g transform="translate(192.964709, 234.780334)"><g><path d="M 2.6875 0 L 0.765625 0 L 0.765625 -7.609375 L 2.6875 -7.609375 Z M 2.6875 0 "/></g></g></g><g fill="#ffffff" fill-opacity="1"><g transform="translate(196.417812, 234.780334)"><g><path d="M 4.359375 -7.671875 C 5.546875 -7.671875 6.53125 -7.300781 7.3125 -6.5625 C 8.09375 -5.832031 8.484375 -4.914062 8.484375 -3.8125 C 8.484375 -2.707031 8.085938 -1.78125 7.296875 -1.03125 C 6.515625 -0.28125 5.535156 0.09375 4.359375 0.09375 C 3.191406 0.09375 2.21875 -0.273438 1.4375 -1.015625 C 0.65625 -1.765625 0.265625 -2.695312 0.265625 -3.8125 C 0.265625 -4.914062 0.65625 -5.832031 1.4375 -6.5625 C 2.21875 -7.300781 3.191406 -7.671875 4.359375 -7.671875 Z M 4.390625 -6.046875 C 3.796875 -6.046875 3.285156 -5.828125 2.859375 -5.390625 C 2.441406 -4.960938 2.234375 -4.429688 2.234375 -3.796875 C 2.234375 -3.160156 2.441406 -2.625 2.859375 -2.1875 C 3.285156 -1.75 3.789062 -1.53125 4.375 -1.53125 C 4.96875 -1.53125 5.46875 -1.75 5.875 -2.1875 C 6.289062 -2.625 6.5 -3.160156 6.5 -3.796875 C 6.5 -4.429688 6.289062 -4.960938 5.875 -5.390625 C 5.46875 -5.828125 4.972656 -6.046875 4.390625 -6.046875 Z M 4.390625 -6.046875 "/></g></g></g><g fill="#ffffff" fill-opacity="1"><g transform="translate(205.159148, 234.780334)"><g><path d="M 7.78125 0 L 6.078125 0 L 2.578125 -4.6875 L 2.578125 0 L 0.765625 0 L 0.765625 -7.609375 L 2.46875 -7.609375 L 5.96875 -2.90625 L 5.96875 -7.609375 L 7.78125 -7.609375 Z M 7.78125 0 "/></g></g></g><g fill="#ffffff" fill-opacity="1"><g transform="translate(213.694161, 234.780334)"><g><path d="M 3.6875 -7.6875 C 4.820312 -7.6875 5.816406 -7.40625 6.671875 -6.84375 L 5.953125 -5.328125 C 5.554688 -5.554688 5.128906 -5.742188 4.671875 -5.890625 C 4.210938 -6.046875 3.828125 -6.125 3.515625 -6.125 C 2.960938 -6.125 2.6875 -5.941406 2.6875 -5.578125 C 2.6875 -5.335938 2.820312 -5.144531 3.09375 -5 C 3.363281 -4.851562 3.695312 -4.726562 4.09375 -4.625 C 4.488281 -4.519531 4.882812 -4.390625 5.28125 -4.234375 C 5.675781 -4.085938 6.007812 -3.847656 6.28125 -3.515625 C 6.5625 -3.179688 6.703125 -2.765625 6.703125 -2.265625 C 6.703125 -1.523438 6.414062 -0.953125 5.84375 -0.546875 C 5.269531 -0.140625 4.539062 0.0625 3.65625 0.0625 C 3.03125 0.0625 2.410156 -0.046875 1.796875 -0.265625 C 1.179688 -0.484375 0.644531 -0.78125 0.1875 -1.15625 L 0.9375 -2.640625 C 1.320312 -2.304688 1.773438 -2.03125 2.296875 -1.8125 C 2.816406 -1.601562 3.28125 -1.5 3.6875 -1.5 C 3.988281 -1.5 4.226562 -1.550781 4.40625 -1.65625 C 4.582031 -1.769531 4.671875 -1.9375 4.671875 -2.15625 C 4.671875 -2.363281 4.570312 -2.539062 4.375 -2.6875 C 4.175781 -2.832031 3.925781 -2.9375 3.625 -3 C 3.332031 -3.070312 3.007812 -3.164062 2.65625 -3.28125 C 2.3125 -3.394531 1.988281 -3.519531 1.6875 -3.65625 C 1.394531 -3.789062 1.148438 -4.007812 0.953125 -4.3125 C 0.753906 -4.613281 0.65625 -4.972656 0.65625 -5.390625 C 0.65625 -6.085938 0.929688 -6.644531 1.484375 -7.0625 C 2.035156 -7.476562 2.769531 -7.6875 3.6875 -7.6875 Z M 3.6875 -7.6875 "/></g></g></g><g fill="#ffffff" fill-opacity="1"><g transform="translate(220.687225, 234.780334)"><g/></g></g><g fill="#ffffff" fill-opacity="1"><g transform="translate(223.206465, 234.780334)"><g><path d="M 9.3125 0 L 7.3125 0 L 5.90625 -5.25 L 4.46875 0 L 2.46875 0 L -0.015625 -7.609375 L 2.046875 -7.609375 L 3.546875 -2.015625 L 5 -7.609375 L 6.890625 -7.609375 L 8.375 -2.015625 L 9.84375 -7.609375 L 11.8125 -7.609375 Z M 9.3125 0 "/></g></g></g><g fill="#ffffff" fill-opacity="1"><g transform="translate(234.944827, 234.780334)"><g><path d="M 2.6875 0 L 0.765625 0 L 0.765625 -7.609375 L 2.6875 -7.609375 Z M 2.6875 0 "/></g></g></g><g fill="#ffffff" fill-opacity="1"><g transform="translate(238.39793, 234.780334)"><g><path d="M 6.5625 -6.046875 L 4.28125 -6.046875 L 4.28125 0 L 2.34375 0 L 2.34375 -6.046875 L 0.078125 -6.046875 L 0.078125 -7.609375 L 6.5625 -7.609375 Z M 6.5625 -6.046875 "/></g></g></g><g fill="#ffffff" fill-opacity="1"><g transform="translate(245.032661, 234.780334)"><g><path d="M 7.78125 0 L 5.84375 0 L 5.84375 -2.953125 L 2.6875 -2.953125 L 2.6875 0 L 0.765625 0 L 0.765625 -7.609375 L 2.6875 -7.609375 L 2.6875 -4.46875 L 5.84375 -4.46875 L 5.84375 -7.609375 L 7.78125 -7.609375 Z M 7.78125 0 "/></g></g></g><g fill="#ffffff" fill-opacity="1"><g transform="translate(253.567686, 234.780334)"><g/></g></g><g fill="#ffffff" fill-opacity="1"><g transform="translate(256.086926, 234.780334)"><g><path d="M 9.109375 0 L 7.40625 0 L 7.390625 -4.9375 L 5.578125 -0.765625 L 4.3125 -0.765625 L 2.484375 -4.9375 L 2.484375 0 L 0.765625 0 L 0.765625 -7.609375 L 2.875 -7.609375 L 4.9375 -3.078125 L 7 -7.609375 L 9.109375 -7.609375 Z M 9.109375 0 "/></g></g></g><g fill="#ffffff" fill-opacity="1"><g transform="translate(265.968436, 234.780334)"><g><path d="M 4.359375 -7.671875 C 5.546875 -7.671875 6.53125 -7.300781 7.3125 -6.5625 C 8.09375 -5.832031 8.484375 -4.914062 8.484375 -3.8125 C 8.484375 -2.707031 8.085938 -1.78125 7.296875 -1.03125 C 6.515625 -0.28125 5.535156 0.09375 4.359375 0.09375 C 3.191406 0.09375 2.21875 -0.273438 1.4375 -1.015625 C 0.65625 -1.765625 0.265625 -2.695312 0.265625 -3.8125 C 0.265625 -4.914062 0.65625 -5.832031 1.4375 -6.5625 C 2.21875 -7.300781 3.191406 -7.671875 4.359375 -7.671875 Z M 4.390625 -6.046875 C 3.796875 -6.046875 3.285156 -5.828125 2.859375 -5.390625 C 2.441406 -4.960938 2.234375 -4.429688 2.234375 -3.796875 C 2.234375 -3.160156 2.441406 -2.625 2.859375 -2.1875 C 3.285156 -1.75 3.789062 -1.53125 4.375 -1.53125 C 4.96875 -1.53125 5.46875 -1.75 5.875 -2.1875 C 6.289062 -2.625 6.5 -3.160156 6.5 -3.796875 C 6.5 -4.429688 6.289062 -4.960938 5.875 -5.390625 C 5.46875 -5.828125 4.972656 -6.046875 4.390625 -6.046875 Z M 4.390625 -6.046875 "/></g></g></g><g fill="#ffffff" fill-opacity="1"><g transform="translate(274.709773, 234.780334)"><g><path d="M 4.359375 -7.671875 C 5.546875 -7.671875 6.53125 -7.300781 7.3125 -6.5625 C 8.09375 -5.832031 8.484375 -4.914062 8.484375 -3.8125 C 8.484375 -2.707031 8.085938 -1.78125 7.296875 -1.03125 C 6.515625 -0.28125 5.535156 0.09375 4.359375 0.09375 C 3.191406 0.09375 2.21875 -0.273438 1.4375 -1.015625 C 0.65625 -1.765625 0.265625 -2.695312 0.265625 -3.8125 C 0.265625 -4.914062 0.65625 -5.832031 1.4375 -6.5625 C 2.21875 -7.300781 3.191406 -7.671875 4.359375 -7.671875 Z M 4.390625 -6.046875 C 3.796875 -6.046875 3.285156 -5.828125 2.859375 -5.390625 C 2.441406 -4.960938 2.234375 -4.429688 2.234375 -3.796875 C 2.234375 -3.160156 2.441406 -2.625 2.859375 -2.1875 C 3.285156 -1.75 3.789062 -1.53125 4.375 -1.53125 C 4.96875 -1.53125 5.46875 -1.75 5.875 -2.1875 C 6.289062 -2.625 6.5 -3.160156 6.5 -3.796875 C 6.5 -4.429688 6.289062 -4.960938 5.875 -5.390625 C 5.46875 -5.828125 4.972656 -6.046875 4.390625 -6.046875 Z M 4.390625 -6.046875 "/></g></g></g><g fill="#ffffff" fill-opacity="1"><g transform="translate(283.451109, 234.780334)"><g><path d="M 0.765625 -7.609375 L 4.03125 -7.609375 C 5.226562 -7.609375 6.195312 -7.253906 6.9375 -6.546875 C 7.6875 -5.847656 8.0625 -4.929688 8.0625 -3.796875 C 8.0625 -2.679688 7.679688 -1.769531 6.921875 -1.0625 C 6.160156 -0.351562 5.171875 0 3.953125 0 L 0.765625 0 Z M 2.6875 -6.0625 L 2.6875 -1.546875 L 4.078125 -1.546875 C 4.671875 -1.546875 5.15625 -1.753906 5.53125 -2.171875 C 5.914062 -2.585938 6.109375 -3.125 6.109375 -3.78125 C 6.109375 -4.445312 5.90625 -4.992188 5.5 -5.421875 C 5.101562 -5.847656 4.597656 -6.0625 3.984375 -6.0625 Z M 2.6875 -6.0625 "/></g></g></g><g fill="#ffffff" fill-opacity="1"><g transform="translate(291.779823, 234.780334)"><g><path d="M 2.6875 0 L 0.765625 0 L 0.765625 -7.609375 L 2.6875 -7.609375 Z M 2.6875 0 "/></g></g></g><g fill="#ffffff" fill-opacity="1"><g transform="translate(295.232925, 234.780334)"><g><path d="M 6.390625 -6.078125 L 2.6875 -6.078125 L 2.6875 -4.328125 L 6.109375 -4.328125 L 6.109375 -2.796875 L 2.6875 -2.796875 L 2.6875 0 L 0.765625 0 L 0.765625 -7.609375 L 6.390625 -7.609375 Z M 6.390625 -6.078125 "/></g></g></g><g fill="#ffffff" fill-opacity="1"><g transform="translate(301.791646, 234.780334)"><g><path d="M 4.6875 -2.453125 L 4.6875 0 L 2.765625 0 L 2.765625 -2.40625 L -0.046875 -7.609375 L 1.875 -7.609375 L 3.71875 -4.296875 L 5.5 -7.609375 L 7.4375 -7.609375 Z M 4.6875 -2.453125 "/></g></g></g><g fill="#ffffff" fill-opacity="1"><g transform="translate(309.175637, 234.780334)"><g><path d="M 2.0625 -4.640625 L 0.65625 -4.640625 L 0.65625 -7.609375 L 2.0625 -7.609375 Z M 4.109375 -4.640625 L 2.703125 -4.640625 L 2.703125 -7.609375 L 4.109375 -7.609375 Z M 4.109375 -4.640625 "/></g></g></g></svg>